<svg fill="none" height="37" viewBox="0 0 263 37" width="263" xmlns="http://www.w3.org/2000/svg"><path d="m14.15 36.55c-2.7667 0-5.38334-.35-7.85-1.05-2.43334-.7-4.46667-1.65-6.100003-2.85l2.250003-6.1c1.56666 1.1 3.35 1.9667 5.35 2.6 2.03333.6333 4.15.95 6.35.95 2.4 0 4.1167-.3667 5.15-1.1 1.0667-.7667 1.6-1.7167 1.6-2.85 0-.9667-.3667-1.7333-1.1-2.3s-2.0167-1.05-3.85-1.45l-5.65-1.2c-6.3-1.3333-9.450003-4.6-9.450003-9.8 0-2.23333.600003-4.18333 1.800003-5.85 1.2-1.7 2.86666-3.01667 5-3.95 2.16666-.933335 4.6667-1.400001 7.5-1.400001 2.4333 0 4.7167.349999 6.85 1.050001 2.1333.7 3.9 1.68333 5.3 2.95l-2.25 5.7c-2.7333-2.16667-6.05-3.25-9.95-3.25-2.1 0-3.7333.41667-4.9 1.25-1.13334.8-1.7 1.85-1.7 3.15 0 .9667.35 1.75 1.05 2.35s1.9167 1.0833 3.65 1.45l5.65 1.2c6.4667 1.4 9.7 4.5667 9.7 9.5 0 2.2-.6 4.1333-1.8 5.8-1.1667 1.6333-2.8333 2.9167-5 3.85-2.1333.9-4.6667 1.35-7.6 1.35z" fill="#001f76"/><path d="m68.9133 36v-35.250002h5.75l17.6 22.450002v-22.450002h7.2v35.250002h-5.7l-17.65-22.5v22.5z" fill="#001f76"/><path d="m109.06 36v-35.250002h13.8c6 0 10.65 1.533332 13.95 4.600002 3.3 3.03333 4.95 7.3667 4.95 13s-1.65 9.9833-4.95 13.05-7.95 4.6-13.95 4.6zm7.75-6.35h5.6c7.5 0 11.25-3.7667 11.25-11.3 0-7.5-3.75-11.25-11.25-11.25h-5.6z" fill="#001f76"/><path d="m183.113 36v-35.250002h7.75v35.250002z" fill="#001f76"/><path d="m241.589 36v-15.9l-13.6-19.350002h9l8.6 12.400002 8.6-12.400002h8.65l-13.5 19.400002v15.85z" fill="#001f76"/><g clip-rule="evenodd" fill-rule="evenodd"><path d="m61 9h-25v-8h25z" fill="#f96156"/><path d="m61 23h-25v-8h25z" fill="#001f76"/><path d="m224 9h-25v-8h25z" fill="#f96156"/><path d="m224 23h-25v-8h25z" fill="#001f76"/><path d="m199 36v-20h8v20z" fill="#001f76"/><path d="m61 36h-25v-8h25z" fill="#001f76"/><path d="m147 .999998v35.250002h7.45v-29h.3v-.2h6.95c4.167 0 6.25 1.65 6.25 4.95 0 3.3333-2.083 5-6.25 5h-2.25v5.6539c.63.0789 1.196.2442 1.7.4961.734.3333 1.35.95 1.85 1.85l6.1 11.25h8.55l-5.7-10.45c-1.133-2.0333-2.583-3.3167-4.35-3.85 2.5-.6333 4.417-1.8167 5.75-3.55 1.367-1.7667 2.05-3.9667 2.05-6.6 0-3.4-1.066-6.05-3.2-7.95-2.133-1.9-5.166-2.850002-9.1-2.850002z" fill="#001f76"/></g></svg>